<svg width="420" height="420" viewBox="0 0 420 420" xmlns="http://www.w3.org/2000/svg" role="img" aria-labelledby="title desc">
  <title id="title">Illustration de Julie et José en cuisine</title>
  <desc id="desc">Illustration abstraite de deux chefs cuisiniers stylisés</desc>
  <defs>
    <linearGradient id="bg" x1="0%" y1="0%" x2="100%" y2="100%">
      <stop offset="0%" stop-color="#FFF0E6" />
      <stop offset="100%" stop-color="#FFE0C2" />
    </linearGradient>
    <linearGradient id="apron" x1="0%" y1="0%" x2="0%" y2="100%">
      <stop offset="0%" stop-color="#BF1E2E" />
      <stop offset="100%" stop-color="#8F1522" />
    </linearGradient>
  </defs>
  <rect width="420" height="420" rx="52" fill="url(#bg)" />
  <circle cx="120" cy="140" r="58" fill="#FFE8D5" />
  <circle cx="120" cy="120" r="42" fill="#F79F1F" opacity="0.8" />
  <circle cx="300" cy="130" r="52" fill="#FFE8D5" />
  <circle cx="300" cy="112" r="38" fill="#BF1E2E" opacity="0.75" />
  <path d="M70 340 C70 260 110 220 120 210 C150 200 190 220 210 280 C232 220 280 210 306 220 C350 250 360 310 352 360 Z" fill="url(#apron)" opacity="0.85" />
  <path d="M150 170 C210 190 230 180 250 170" stroke="#101820" stroke-width="6" stroke-linecap="round" />
  <circle cx="136" cy="132" r="6" fill="#101820" />
  <circle cx="282" cy="118" r="6" fill="#101820" />
  <path d="M112 260 Q120 270 130 265" stroke="#FFE8D5" stroke-width="18" stroke-linecap="round" />
  <path d="M294 244 Q302 256 314 250" stroke="#FFE8D5" stroke-width="18" stroke-linecap="round" />
</svg>

